<svg width="906" height="695" viewBox="0 0 906 695" fill="none" xmlns="http://www.w3.org/2000/svg">
<g opacity="0.5" clip-path="url(#clip0)">
<path d="M872.767 0.00115868H620.98C608.83 0.0011452 597.041 4.22199 587.552 11.9699C578.063 19.7177 571.438 30.5315 568.765 42.6338L441.542 618.825C440.155 625.109 440.13 631.628 441.471 637.923C442.811 644.219 445.484 650.139 449.302 655.268C453.12 660.397 457.991 664.611 463.573 667.615C469.154 670.619 475.312 672.34 481.614 672.657L740.453 685.678C754.313 686.376 767.948 681.9 778.814 673.087C789.679 664.273 797.033 651.724 799.503 637.781L871.672 230.408L877.041 231.974L890.85 154.762L885.323 153.351L905.468 39.6386C906.331 34.768 906.131 29.7631 904.882 24.9806C903.633 20.1981 901.366 15.7558 898.243 11.9703C895.12 8.18483 891.218 5.14946 886.814 3.08057C882.411 1.01168 877.614 -0.0397769 872.767 0.00115053L872.767 0.00115868Z" fill="#D9D9D9" fill-opacity="0.87"/>
<path d="M654.127 12.4224H624.736C616.296 12.4224 608.109 15.3699 601.535 20.7756C594.961 26.1812 590.396 33.72 588.597 42.1402L466.48 613.63C465.777 616.92 465.778 620.327 466.482 623.617C467.186 626.907 468.578 630.003 470.562 632.694C472.545 635.384 475.074 637.606 477.976 639.207C480.877 640.809 484.083 641.751 487.374 641.972L745.376 659.237C752.654 659.724 759.854 657.458 765.6 652.87C771.347 648.283 775.238 641.696 776.531 634.366L880.734 43.6753C881.408 39.8521 881.253 35.9244 880.278 32.1692C879.304 28.4141 877.534 24.9232 875.094 21.9427C872.653 18.9623 869.602 16.5649 866.156 14.92C862.709 13.275 858.951 12.4224 855.146 12.4224H827.264C824.565 12.4224 821.942 13.3307 819.8 15.0068C817.658 16.6829 816.117 19.0333 815.416 21.6939V21.6939C814.796 24.0429 813.436 26.1178 811.545 27.5975C809.654 29.0772 807.338 29.8791 804.956 29.8791H672.59C667.924 29.8791 663.431 28.0811 660.008 24.8446C656.585 21.6082 654.485 17.1717 654.127 12.4224V12.4224Z" fill="white" fill-opacity="0.87"/>
<path d="M800.543 411.943C801.048 411.962 801.543 411.797 801.94 411.476C802.336 411.155 802.606 410.7 802.703 410.193L860.555 88.6729C860.61 88.3668 860.599 88.0521 860.522 87.7509C860.446 87.4496 860.306 87.169 860.112 86.9288C859.919 86.6885 859.676 86.4943 859.401 86.3597C859.126 86.2252 858.826 86.1536 858.521 86.1498L595.317 83.019H595.293C594.818 83.0208 594.358 83.1868 593.987 83.4899C593.616 83.7931 593.356 84.2156 593.251 84.6885L525.051 395.773C524.984 396.077 524.983 396.392 525.049 396.696C525.114 397 525.243 397.286 525.428 397.534C525.613 397.782 525.849 397.985 526.119 398.13C526.389 398.275 526.686 398.358 526.991 398.373L800.543 411.943Z" fill="#E6E6E6" fill-opacity="0.87"/>
<path d="M571.487 432.481C571.25 432.481 571.021 432.562 570.836 432.712C570.652 432.863 570.522 433.072 570.469 433.307L568.038 443.945C568.004 444.095 568.002 444.252 568.032 444.403C568.063 444.554 568.125 444.697 568.215 444.821C568.305 444.946 568.42 445.049 568.553 445.123C568.685 445.198 568.832 445.242 568.983 445.253L706.306 455.219C706.561 455.235 706.812 455.157 707.015 454.999C707.217 454.84 707.357 454.612 707.408 454.357L709.745 442.05C709.774 441.901 709.77 441.747 709.736 441.599C709.701 441.451 709.636 441.312 709.545 441.191C709.454 441.071 709.338 440.972 709.206 440.901C709.074 440.83 708.929 440.789 708.78 440.78L571.55 432.483C571.529 432.482 571.508 432.481 571.487 432.481Z" fill="#E6E6E6" fill-opacity="0.87"/>
<path d="M738.325 494.744C738.572 494.763 738.819 494.693 739.02 494.545C739.221 494.396 739.365 494.18 739.425 493.934L742.4 481.601C742.437 481.45 742.44 481.292 742.411 481.139C742.381 480.986 742.319 480.842 742.229 480.716C742.139 480.59 742.024 480.485 741.89 480.41C741.757 480.335 741.608 480.29 741.456 480.279L566.089 467.756C565.851 467.736 565.614 467.802 565.418 467.941C565.222 468.079 565.079 468.283 565.013 468.517L561.921 479.175C561.876 479.327 561.866 479.488 561.89 479.645C561.914 479.802 561.972 479.952 562.061 480.083C562.149 480.214 562.264 480.323 562.399 480.403C562.534 480.483 562.685 480.53 562.84 480.543L738.325 494.744Z" fill="#E6E6E6" fill-opacity="0.87"/>
<path d="M728.907 534.277C729.155 534.298 729.401 534.227 729.603 534.079C729.804 533.931 729.947 533.714 730.007 533.468L732.983 521.134C733.019 520.983 733.022 520.825 732.993 520.672C732.963 520.52 732.902 520.375 732.812 520.249C732.722 520.123 732.606 520.019 732.472 519.943C732.339 519.868 732.191 519.823 732.038 519.812L556.672 507.289C556.434 507.27 556.196 507.335 556 507.474C555.804 507.613 555.661 507.817 555.595 508.051L552.503 518.708C552.458 518.861 552.448 519.022 552.472 519.179C552.496 519.336 552.555 519.485 552.643 519.616C552.731 519.748 552.846 519.857 552.981 519.936C553.116 520.016 553.267 520.064 553.422 520.076L728.907 534.277Z" fill="#E6E6E6" fill-opacity="0.87"/>
<path d="M648.14 602.098C648.389 602.125 648.64 602.058 648.845 601.91C649.05 601.761 649.195 601.542 649.253 601.293L655.545 575.595C655.582 575.445 655.587 575.288 655.558 575.136C655.53 574.984 655.47 574.84 655.382 574.714C655.293 574.588 655.179 574.483 655.048 574.406C654.916 574.33 654.769 574.283 654.618 574.27L546.924 565.021C546.672 565.003 546.423 565.077 546.22 565.23C546.017 565.382 545.873 565.603 545.814 565.854L540.447 590.517C540.415 590.665 540.414 590.818 540.444 590.967C540.474 591.115 540.535 591.255 540.623 591.378C540.71 591.5 540.822 591.602 540.951 591.678C541.08 591.753 541.223 591.799 541.371 591.813L648.14 602.098Z" fill="#E4E4E4" fill-opacity="0.87"/>
</g>
<defs>
<clipPath id="clip0">
<rect width="906" height="695" fill="white"/>
</clipPath>
</defs>
</svg>
